<svg width="40" height="40" viewBox="0 0 40 40" fill="none" xmlns="http://www.w3.org/2000/svg">
<path fill-rule="evenodd" clip-rule="evenodd" d="M28.1949 11.5083C28.1949 14.3925 27.4782 18.1541 26.3757 17.5833C25.9249 19.0556 24.9784 20.3264 23.697 21.1801C22.4156 22.0337 20.8782 22.4176 19.3459 22.2664C17.8136 22.1152 16.3808 21.4384 15.2909 20.3508C14.201 19.2632 13.521 17.8319 13.3666 16.3C12.2724 14.3858 10.8374 10.55 14.5266 7.55997C14.5932 7.53831 14.6333 7.35831 14.6933 7.09331C14.9216 6.09081 15.4274 3.86247 18.6182 4.28831C21.0791 4.61581 28.1949 5.88581 28.1949 11.5083ZM25.0232 13.3275C25.0232 13.3275 24.6466 14.4291 24.9999 15.6566C24.9953 16.9655 24.4777 18.2203 23.5582 19.1517C22.6388 20.0832 21.3907 20.6169 20.082 20.6384C18.7734 20.6599 17.5085 20.1674 16.5589 19.2667C15.6093 18.3659 15.0508 17.1288 15.0032 15.8208C15.1241 15.3625 15.1241 14.5866 15.1233 13.7241C15.1224 12.1683 15.1208 10.3325 15.8333 9.58414C20.8241 12.9083 25.0232 13.3275 25.0232 13.3275Z" fill="url(#paint0_linear_1059_1369)"/>
<path d="M10.8333 29.9999C10.8333 29.0983 11.3108 28.3083 12.0275 27.8683C12.0003 27.7645 11.9747 27.6603 11.9508 27.5558C11.8249 26.9863 11.7261 26.4112 11.655 25.8324C11.5839 25.2777 11.5408 24.7198 11.5258 24.1608C8.00833 25.5416 5 27.9483 5 30.4749V34.9999H35V30.4749C35 28.0549 32.2417 25.7458 28.9183 24.3416V24.3649C28.9333 24.8733 28.905 25.4566 28.85 26.0174C28.8 26.5374 28.7258 27.0558 28.6367 27.4999H29.1667C29.3214 27.5 29.473 27.5432 29.6046 27.6246C29.7362 27.7059 29.8425 27.8224 29.9117 27.9608L30.745 29.6274C30.8033 29.7433 30.8333 29.8708 30.8333 29.9999V31.6666C30.8333 31.8876 30.7455 32.0996 30.5893 32.2558C30.433 32.4121 30.221 32.4999 30 32.4999H28.3333V30.8333H29.1667V30.1966L28.6517 29.1666H26.3483L25.8333 30.1966V30.8333H26.6667V32.4999H25C24.779 32.4999 24.567 32.4121 24.4107 32.2558C24.2545 32.0996 24.1667 31.8876 24.1667 31.6666V29.9999C24.1667 29.8708 24.1967 29.7433 24.255 29.6274L25.0883 27.9608C25.1575 27.8224 25.2638 27.7059 25.3954 27.6246C25.527 27.5432 25.6786 27.5 25.8333 27.4999H26.9292C26.9475 27.4283 26.9658 27.3488 26.9842 27.2616C27.0675 26.8691 27.1417 26.3716 27.1917 25.8574C27.2417 25.3424 27.265 24.8316 27.2525 24.4116C27.2498 24.2376 27.2361 24.0639 27.2117 23.8916C27.1933 23.7733 27.175 23.7191 27.1717 23.7074C27.1706 23.7046 27.1706 23.7041 27.1717 23.7058L27.1742 23.7049C26.7319 23.5678 26.2847 23.4474 25.8333 23.3441C25.4142 23.2483 24.9808 23.8249 24.7917 24.1858H15L14.9283 24.0458C14.7517 23.6941 14.5342 23.2599 14.1667 23.3441C13.8456 23.4169 13.5247 23.4994 13.2042 23.5916C13.1942 23.7378 13.1898 23.8843 13.1908 24.0308C13.1942 24.4916 13.2383 25.0558 13.3092 25.6258C13.38 26.1941 13.4758 26.7474 13.5758 27.1841C13.6047 27.3102 13.6325 27.4224 13.6592 27.5208C14.1356 27.5834 14.5839 27.782 14.9504 28.0928C15.3168 28.4036 15.586 28.8135 15.7255 29.2733C15.8651 29.7331 15.8692 30.2234 15.7374 30.6854C15.6055 31.1475 15.3433 31.5618 14.9821 31.8787C14.6208 32.1956 14.176 32.4017 13.7006 32.4723C13.2253 32.5429 12.7397 32.475 12.302 32.2768C11.8643 32.0786 11.4929 31.7584 11.2325 31.3546C10.972 30.9508 10.8334 30.4805 10.8333 29.9999Z" fill="url(#paint1_linear_1059_1369)"/>
<path d="M14.1667 30.0001C14.1667 30.4785 13.7817 30.846 13.3333 30.846C12.885 30.846 12.5 30.4793 12.5 30.0001C12.5 29.5218 12.885 29.1543 13.3333 29.1543C13.7817 29.1543 14.1667 29.521 14.1667 30.0001Z" fill="url(#paint2_linear_1059_1369)"/>
<defs>
<linearGradient id="paint0_linear_1059_1369" x1="12.1514" y1="13.1764" x2="30.2405" y2="13.1764" gradientUnits="userSpaceOnUse">
<stop stop-color="#064198"/>
<stop offset="0.67" stop-color="#C20167"/>
</linearGradient>
<linearGradient id="paint1_linear_1059_1369" x1="5" y1="29.1084" x2="38.825" y2="29.1084" gradientUnits="userSpaceOnUse">
<stop stop-color="#064198"/>
<stop offset="0.67" stop-color="#C20167"/>
</linearGradient>
<linearGradient id="paint2_linear_1059_1369" x1="12.5" y1="29.9917" x2="14.3792" y2="29.9917" gradientUnits="userSpaceOnUse">
<stop stop-color="#064198"/>
<stop offset="0.67" stop-color="#C20167"/>
</linearGradient>
</defs>
</svg>
